<?xml version="1.0" encoding="utf-8"?>
<!-- Generator: Adobe Illustrator 16.0.3, SVG Export Plug-In . SVG Version: 6.00 Build 0)  -->
<!DOCTYPE svg PUBLIC "-//W3C//DTD SVG 1.1//EN" "http://www.w3.org/Graphics/SVG/1.1/DTD/svg11.dtd">
<svg version="1.1" id="Layer_1" xmlns="http://www.w3.org/2000/svg" xmlns:xlink="http://www.w3.org/1999/xlink" x="0px" y="0px"
	 width="800px" height="369.34px" viewBox="0 0 800 369.34" style="enable-background:new 0 0 800 369.34;" xml:space="preserve">
<g>
	<path style="fill:#FFFFFF;" d="M226.79,61.88c0-6.87,6.07-12.94,12.95-12.94c7.29,0,12.94,6.07,12.94,12.94v42.49h26.3
		c6.88,0,12.14,5.27,12.14,12.14c0,6.88-5.26,12.14-12.14,12.14h-26.3v111.64c0,17.41,9.71,26.71,23.46,26.71
		c6.87,0,12.55,5.26,12.55,12.14c0,6.87-5.68,12.13-12.55,12.13c-31.95,0-49.35-21.44-49.35-50.97V128.65h-15.78
		c-6.88,0-12.13-5.25-12.13-12.14c0-6.87,5.26-12.14,12.13-12.14h15.78V61.88z"/>
	<path style="fill:#FFFFFF;" d="M483.65,170.3v108.01c0,7.28-5.67,12.94-12.94,12.94c-7.28,0-12.94-5.66-12.94-12.94V175.56
		c0-31.95-9.31-53.8-48.54-53.8c-40.04,0-53.8,24.28-53.8,56.64v99.91c0,7.28-5.67,12.94-12.95,12.94s-12.94-5.66-12.94-12.94V12.94
		C329.54,5.67,335.2,0,342.48,0s12.95,5.67,12.95,12.94v114.08c7.68-15.37,27.49-28.31,53.8-28.31
		C471.53,98.71,483.65,135.93,483.65,170.3z"/>
	<path style="fill:#FFFFFF;" d="M577.11,280.34l-67.56-160.59c-0.42-1.23-1.21-2.83-1.21-5.67c0-7.28,5.67-12.95,12.94-12.95
		c7.28,0,10.54,4.46,12.14,8.51l57.04,139.56l57.04-139.56c1.63-4.06,4.85-8.51,12.14-8.51c7.28,0,12.95,5.67,12.95,12.95
		c0,2.84-0.83,4.44-1.21,5.67l-79.69,189.71c-16.59,39.66-37.22,59.87-75.65,59.87c-6.9,0-12.14-5.26-12.14-12.14
		c0-6.87,5.24-12.13,12.14-12.13C551.2,345.07,560.52,321.2,577.11,280.34z"/>
	<path style="fill:#FFFFFF;" d="M731.22,131.89c8.1-18.62,28.32-32.38,56.24-32.38c6.87,0,12.54,5.67,12.54,12.55
		c0,6.87-5.67,12.52-12.54,12.52c-37.22,0-56.24,25.89-56.24,63.11v90.61c0,7.28-5.67,12.94-12.94,12.94
		c-7.28,0-12.94-5.66-12.94-12.94V114.08c0-7.28,5.66-12.95,12.94-12.95c7.27,0,12.94,5.67,12.94,12.95V131.89z"/>
	<g>
		<path style="fill:#FFFFFF;" d="M96.32,291.25C43.21,291.25,0,248.06,0,194.94c0-53.12,43.21-96.33,96.32-96.33
			c43.58,0,81.84,29.36,93.09,71.4c1.66,6.26-2.04,12.67-8.31,14.36l-151.19,40.5c11.43,25.29,36.92,42.92,66.41,42.92
			c19.47,0,37.77-7.56,51.53-21.33c4.59-4.59,12.01-4.59,16.6,0c4.59,4.59,4.59,12.01,0,16.58
			C146.26,281.25,122.07,291.25,96.32,291.25z M96.32,122.07c-40.18,0-72.86,32.69-72.86,72.86c0,2.46,0.13,4.89,0.36,7.27
			l138.95-37.22C151.18,139.23,125.3,122.07,96.32,122.07z"/>
		<path style="fill:#FFFFFF;" d="M163.07,261.69"/>
		<path style="fill:#FFFFFF;" d="M29.59,128.2"/>
		<path style="fill:#FFFFFF;" d="M37.3,106.48V72.51c0-30.11,26.34-51.58,59.02-51.58c32.7,0,59.02,21.47,59.02,51.58v33.98
			c8.52,5.71,16.17,12.61,22.68,20.49V72.51c0-41.69-36.4-72.51-81.7-72.51C51.04,0,14.63,30.81,14.63,72.51v54.46
			C21.15,119.1,28.8,112.2,37.3,106.48z"/>
		<path style="fill:#FFFFFF;" d="M130.18,194.94c0,18.68-15.16,33.83-33.86,33.83c-18.68,0-33.82-15.14-33.82-33.83
			c0-18.7,15.14-33.84,33.82-33.84C115.02,161.1,130.18,176.24,130.18,194.94z"/>
	</g>
</g>
<g>
</g>
<g>
</g>
<g>
</g>
<g>
</g>
<g>
</g>
<g>
</g>
<g>
</g>
<g>
</g>
<g>
</g>
<g>
</g>
<g>
</g>
<g>
</g>
<g>
</g>
<g>
</g>
<g>
</g>
</svg>
