<?xml version="1.0" encoding="utf-8"?>
<!-- Generator: Adobe Illustrator 16.0.3, SVG Export Plug-In . SVG Version: 6.00 Build 0)  -->
<!DOCTYPE svg PUBLIC "-//W3C//DTD SVG 1.1//EN" "http://www.w3.org/Graphics/SVG/1.1/DTD/svg11.dtd">
<svg version="1.1" id="Layer_1" xmlns="http://www.w3.org/2000/svg" xmlns:xlink="http://www.w3.org/1999/xlink" x="0px" y="0px"
	 width="800px" height="369.34px" viewBox="0 0 800 369.34" style="enable-background:new 0 0 800 369.34;" xml:space="preserve">
<g>
	<path style="fill:#3B3B3B;" d="M226.79,61.89c0-6.88,6.07-12.94,12.95-12.94c7.28,0,12.94,6.07,12.94,12.94v42.48h26.29
		c6.88,0,12.14,5.26,12.14,12.14s-5.26,12.13-12.14,12.13h-26.29v111.65c0,17.4,9.71,26.7,23.46,26.7c6.88,0,12.54,5.26,12.54,12.14
		s-5.66,12.14-12.54,12.14c-31.96,0-49.35-21.44-49.35-50.97V128.64h-15.78c-6.88,0-12.14-5.26-12.14-12.13s5.26-12.14,12.14-12.14
		h15.78V61.89z"/>
	<path style="fill:#3B3B3B;" d="M483.66,170.31v108.01c0,7.28-5.66,12.95-12.95,12.95s-12.95-5.66-12.95-12.95V175.57
		c0-31.96-9.3-53.8-48.54-53.8c-40.05,0-53.8,24.27-53.8,56.63v99.92c0,7.28-5.66,12.95-12.95,12.95c-7.28,0-12.95-5.66-12.95-12.95
		V12.95C329.53,5.66,335.2,0,342.48,0c7.28,0,12.95,5.66,12.95,12.95v114.08c7.69-15.37,27.51-28.32,53.8-28.32
		C471.52,98.71,483.66,135.92,483.66,170.31z"/>
	<path style="fill:#3B3B3B;" d="M577.11,280.34l-67.56-160.6c-0.41-1.21-1.21-2.83-1.21-5.66c0-7.28,5.66-12.95,12.95-12.95
		s10.52,4.45,12.14,8.5l57.04,139.56l57.04-139.56c1.62-4.05,4.85-8.5,12.13-8.5c7.28,0,12.95,5.66,12.95,12.95
		c0,2.83-0.81,4.45-1.21,5.66l-79.69,189.73c-16.58,39.64-37.22,59.87-75.65,59.87c-6.88,0-12.14-5.26-12.14-12.14
		c0-6.88,5.26-12.13,12.14-12.13C551.22,345.07,560.52,321.2,577.11,280.34z"/>
	<path style="fill:#3B3B3B;" d="M731.23,131.88c8.09-18.61,28.32-32.36,56.23-32.36c6.88,0,12.54,5.66,12.54,12.54
		c0,6.88-5.66,12.54-12.54,12.54c-37.22,0-56.23,25.89-56.23,63.11v90.62c0,7.28-5.66,12.95-12.94,12.95s-12.95-5.66-12.95-12.95
		V114.08c0-7.28,5.66-12.95,12.95-12.95s12.94,5.66,12.94,12.95V131.88z"/>
	<g>
		<path style="fill:#3B3B3B;" d="M96.33,291.26C43.21,291.26,0,248.05,0,194.94s43.21-96.33,96.33-96.33
			c43.56,0,81.83,29.36,93.07,71.4c1.67,6.26-2.04,12.68-8.3,14.36L29.9,224.88c11.45,25.29,36.92,42.92,66.43,42.92
			c19.46,0,37.76-7.58,51.52-21.34c4.58-4.58,12.01-4.58,16.59,0c4.58,4.58,4.58,12.01,0,16.59
			C146.25,281.24,122.06,291.26,96.33,291.26z M96.33,122.07c-40.18,0-72.87,32.69-72.87,72.87c0,2.46,0.12,4.89,0.36,7.28
			l138.96-37.24C151.18,139.23,125.3,122.07,96.33,122.07z"/>
		<path style="fill:#3B3B3B;" d="M163.07,261.68"/>
		<path style="fill:#3B3B3B;" d="M29.58,128.19"/>
		<path style="fill:#3B3B3B;" d="M37.3,106.49V72.51c0-30.12,26.33-51.58,59.02-51.58c32.69,0,59.02,21.46,59.02,51.58v33.98
			c8.51,5.71,16.16,12.6,22.67,20.47V72.51C178.02,30.82,141.62,0,96.33,0c-45.29,0-81.7,30.81-81.7,72.51v54.46
			C21.14,119.09,28.8,112.2,37.3,106.49z"/>
		<circle style="fill:#3B3B3B;" cx="96.33" cy="194.94" r="33.84"/>
	</g>
</g>
<g>
</g>
<g>
</g>
<g>
</g>
<g>
</g>
<g>
</g>
<g>
</g>
<g>
</g>
<g>
</g>
<g>
</g>
<g>
</g>
<g>
</g>
<g>
</g>
<g>
</g>
<g>
</g>
<g>
</g>
</svg>
