<?xml version="1.0" encoding="utf-8"?>
<!-- Generator: Adobe Illustrator 16.0.3, SVG Export Plug-In . SVG Version: 6.00 Build 0)  -->
<!DOCTYPE svg PUBLIC "-//W3C//DTD SVG 1.1//EN" "http://www.w3.org/Graphics/SVG/1.1/DTD/svg11.dtd">
<svg version="1.1" id="Layer_1" xmlns="http://www.w3.org/2000/svg" xmlns:xlink="http://www.w3.org/1999/xlink" x="0px" y="0px"
	 width="960px" height="415px" viewBox="0 0 960 415" style="enable-background:new 0 0 960 415;" xml:space="preserve">
<g>
	<g>
		<g>
			<path style="fill:#FFFFFF;" d="M21.91,57.81c15.47,0,18.46,12.28,18.46,18.85c0,2.8,0,6.19-3.87,6.19H8.28
				c0,9.57,5.51,15.76,14.6,15.76c5.61,0,8.89-2.13,11.6-4.16c0.58-0.39,0.97-0.58,1.74-0.58c1.55,0,2.8,1.26,2.8,2.8
				c0,1.06-0.48,1.64-1.06,2.22c-1.45,1.45-6.48,5.41-15.08,5.41C10.02,104.31,2,97.25,2,81.01C2,66.12,9.35,57.81,21.91,57.81z
				 M21.91,63.41c-8.41,0-13.05,5.41-13.63,14.02h26C34.29,70.47,31.87,63.41,21.91,63.41z"/>
			<path style="fill:#FFFFFF;" d="M116.46,74.92v25.81c0,1.74-1.35,3.09-3.09,3.09c-1.74,0-3.1-1.35-3.1-3.09V76.17
				c0-7.64-2.71-12.86-12.08-12.86c-8.31,0-12.08,4.45-12.08,11.6v25.81c0,1.74-1.36,3.09-3.09,3.09c-1.74,0-3.1-1.35-3.1-3.09
				V76.17c0-7.64-2.42-12.86-11.89-12.86c-8.99,0-11.89,5.41-11.89,13.53v23.88c0,1.74-1.35,3.09-3.09,3.09
				c-1.74,0-3.09-1.35-3.09-3.09V61.48c0-1.74,1.35-3.09,3.09-3.09c1.74,0,3.09,1.35,3.09,3.09v3.09c1.64-3.58,6.29-6.77,12.57-6.77
				c7.93,0,13.05,2.9,15.37,6.77c2.42-3.77,6.67-6.77,14.11-6.77C113.08,57.81,116.46,66.7,116.46,74.92z"/>
			<path style="fill:#FFFFFF;" d="M132.99,68.54c-0.97,1.06-1.65,1.35-2.51,1.35c-1.55,0-2.8-1.26-2.8-2.8
				c0-0.68,0.19-1.16,0.48-1.64c2.71-4.25,7.93-7.64,16.05-7.64c11.21,0,17.4,6.57,17.4,16.43v26.58c0,1.64-1.35,3-3,3
				c-1.64,0-3-1.35-3-3v-3.48c-2.42,4.54-8.03,6.96-13.82,6.96c-10.25,0-16.72-4.93-16.72-13.82c0-8.51,6.48-13.63,16.92-13.63
				h13.63v-2.61c0-6.57-4.35-10.63-11.41-10.63C139.08,63.61,135.99,65.15,132.99,68.54z M155.61,86.32v-4.06h-13.63
				c-6.28,0-10.63,2.61-10.63,8.22c0,5.03,3.48,8.22,11.02,8.22C149.14,98.7,155.61,94.54,155.61,86.32z"/>
			<path style="fill:#FFFFFF;" d="M172.53,45.63c0-2.8,1.36-3.87,3.68-3.87s3.67,1.06,3.67,3.87c0,2.32-1.35,3.67-3.67,3.67
				S172.53,47.95,172.53,45.63z M179.3,100.73c0,1.74-1.35,3.09-3.09,3.09c-1.74,0-3.1-1.35-3.1-3.09V61.48
				c0-1.74,1.35-3.09,3.1-3.09c1.74,0,3.09,1.35,3.09,3.09V100.73z"/>
			<path style="fill:#FFFFFF;" d="M198.05,37.31v55.2c0,3.87,1.26,5.51,3.87,5.51c1.55,0,2.9,1.26,2.9,2.9c0,1.64-1.35,2.9-2.9,2.9
				c-6.48,0-10.05-3.87-10.05-11.31v-55.2c0-1.64,1.45-3.09,3.09-3.09C196.7,34.22,198.05,35.67,198.05,37.31z"/>
			<path style="fill:#FFFFFF;" d="M271.03,77.24h-38.67c-1.45,0-2.61-1.16-2.61-2.61c0-1.45,1.16-2.61,2.61-2.61h38.67
				c1.45,0,2.61,1.16,2.61,2.61C273.64,76.08,272.48,77.24,271.03,77.24z M271.03,92.03h-38.67c-1.45,0-2.61-1.16-2.61-2.61
				c0-1.45,1.16-2.61,2.61-2.61h38.67c1.45,0,2.61,1.16,2.61,2.61C273.64,90.87,272.48,92.03,271.03,92.03z"/>
		</g>
		<g>
			<path style="fill:#FFFFFF;" d="M309.22,21.52v2.09c1.24-2.22,4.5-4.56,8.87-4.56c8.48,0,13.63,4.96,13.63,15.65
				s-5.15,15.71-13.63,15.71c-4.37,0-7.5-2.35-8.87-4.56v14.74c0,1.11-0.98,2.09-2.09,2.09s-2.09-0.98-2.09-2.09V21.52
				c0-1.17,0.98-2.09,2.09-2.09S309.22,20.35,309.22,21.52z M318.09,46.62c6,0,9.39-3.78,9.39-11.93c0-8.15-3.52-11.87-9.52-11.87
				c-4.83,0-8.87,3.39-8.87,11.87C309.09,43.1,313,46.62,318.09,46.62z"/>
			<path style="fill:#FFFFFF;" d="M342.41,24.39c1.3-3,4.56-5.22,9.06-5.22c1.11,0,2.02,0.91,2.02,2.02s-0.91,2.02-2.02,2.02
				c-6,0-9.06,4.17-9.06,10.17v14.6c0,1.17-0.91,2.09-2.09,2.09c-1.17,0-2.09-0.91-2.09-2.09V21.52c0-1.17,0.91-2.09,2.09-2.09
				c1.17,0,2.09,0.91,2.09,2.09V24.39z"/>
			<path style="fill:#FFFFFF;" d="M357.93,10.83c0-1.89,0.91-2.61,2.48-2.61s2.48,0.72,2.48,2.61c0,1.56-0.91,2.48-2.48,2.48
				S357.93,12.39,357.93,10.83z M362.49,47.99c0,1.17-0.91,2.09-2.09,2.09s-2.09-0.91-2.09-2.09V21.52c0-1.17,0.91-2.09,2.09-2.09
				s2.09,0.91,2.09,2.09V47.99z"/>
			<path style="fill:#FFFFFF;" d="M379.05,48.77l-11.08-26.34c-0.06-0.2-0.2-0.46-0.2-0.91c0-1.17,0.91-2.09,2.09-2.09
				c1.17,0,1.7,0.72,1.96,1.37l9.19,22.49l9.19-22.49c0.26-0.65,0.78-1.37,1.96-1.37c1.17,0,2.09,0.91,2.09,2.09
				c0,0.46-0.13,0.72-0.2,0.91l-11.08,26.34c-0.39,0.85-1.11,1.3-1.96,1.3S379.44,49.62,379.05,48.77z"/>
			<path style="fill:#FFFFFF;" d="M402.85,26.28c-0.65,0.72-1.11,0.91-1.7,0.91c-1.04,0-1.89-0.85-1.89-1.89
				c0-0.46,0.13-0.78,0.33-1.11c1.83-2.87,5.35-5.15,10.82-5.15c7.56,0,11.74,4.43,11.74,11.08v17.93c0,1.11-0.91,2.02-2.02,2.02
				s-2.02-0.91-2.02-2.02v-2.35c-1.63,3.06-5.41,4.69-9.32,4.69c-6.91,0-11.28-3.33-11.28-9.32c0-5.74,4.37-9.19,11.41-9.19h9.19
				v-1.76c0-4.43-2.93-7.17-7.69-7.17C406.96,22.96,404.87,24,402.85,26.28z M418.1,38.28v-2.74h-9.19c-4.24,0-7.17,1.76-7.17,5.54
				c0,3.39,2.35,5.54,7.43,5.54C413.74,46.62,418.1,43.82,418.1,38.28z"/>
			<path style="fill:#FFFFFF;" d="M441.45,19.04c5.8,0,9,3.06,10.04,4.5c0.33,0.46,0.46,0.78,0.46,1.24c0,1.11-0.85,1.89-1.89,1.89
				c-0.65,0-1.11-0.26-1.56-0.78c-0.98-1.11-2.74-3.06-7.04-3.06c-6,0-9.19,3.85-9.19,11.87c0,8.15,3.19,11.93,9.19,11.93
				c3.78,0,6.06-1.7,7.56-2.8c0.46-0.33,0.78-0.46,1.24-0.46c1.04,0,1.89,0.85,1.89,1.89c0,0.59-0.2,1.04-0.85,1.63
				c-1.43,1.17-4.56,3.52-9.85,3.52c-8.41,0-13.43-5.02-13.43-15.71S433.04,19.04,441.45,19.04z"/>
			<path style="fill:#FFFFFF;" d="M466.61,48.32l-10.89-25.88c-0.06-0.2-0.2-0.46-0.2-0.91c0-1.17,0.91-2.09,2.09-2.09
				c1.17,0,1.7,0.72,1.96,1.37l9.19,22.49l9.19-22.49c0.26-0.65,0.78-1.37,1.96-1.37c1.17,0,2.09,0.91,2.09,2.09
				c0,0.46-0.13,0.72-0.2,0.91l-12.84,30.58c-2.67,6.39-6,9.65-12.19,9.65c-1.11,0-1.96-0.85-1.96-1.96s0.85-1.96,1.96-1.96
				C462.44,58.75,463.94,54.9,466.61,48.32z"/>
			<path style="fill:#FFFFFF;" d="M528.94,34.69c0,10.69-4.96,15.71-13.37,15.71c-7.43,0-12.78-4.24-12.78-12.84V5.22
				c0-1.17,0.91-2.09,2.09-2.09s2.09,0.91,2.09,2.09v18.06c1.5-2.09,4.69-4.24,8.87-4.24C524.25,19.04,528.94,24,528.94,34.69z
				 M506.97,37.56c0,6.19,3.59,9.06,8.61,9.06c6,0,9.19-3.78,9.19-11.93c0-8.02-3.26-11.87-9.19-11.87c-6.13,0-8.61,5.74-8.61,5.74
				V37.56z"/>
			<path style="fill:#FFFFFF;" d="M542.37,48.32l-10.89-25.88c-0.07-0.2-0.2-0.46-0.2-0.91c0-1.17,0.91-2.09,2.09-2.09
				s1.7,0.72,1.96,1.37l9.19,22.49l9.19-22.49c0.26-0.65,0.78-1.37,1.96-1.37c1.17,0,2.09,0.91,2.09,2.09c0,0.46-0.13,0.72-0.2,0.91
				l-12.84,30.58c-2.67,6.39-6,9.65-12.19,9.65c-1.11,0-1.96-0.85-1.96-1.96s0.85-1.96,1.96-1.96
				C538.2,58.75,539.7,54.9,542.37,48.32z"/>
			<path style="fill:#B31B00;" d="M582.73,21.52v2.09c1.24-2.22,4.5-4.56,8.87-4.56c8.48,0,13.63,4.96,13.63,15.65
				S600.08,50.4,591.6,50.4c-4.37,0-7.5-2.35-8.87-4.56v14.74c0,1.11-0.98,2.09-2.09,2.09s-2.09-0.98-2.09-2.09V21.52
				c0-1.17,0.98-2.09,2.09-2.09S582.73,20.35,582.73,21.52z M591.6,46.62c6,0,9.39-3.78,9.39-11.93c0-8.15-3.52-11.87-9.52-11.87
				c-4.82,0-8.87,3.39-8.87,11.87C582.6,43.1,586.51,46.62,591.6,46.62z"/>
			<path style="fill:#B31B00;" d="M615.92,24.39c1.3-3,4.56-5.22,9.06-5.22c1.11,0,2.02,0.91,2.02,2.02s-0.91,2.02-2.02,2.02
				c-6,0-9.06,4.17-9.06,10.17v14.6c0,1.17-0.91,2.09-2.09,2.09s-2.09-0.91-2.09-2.09V21.52c0-1.17,0.91-2.09,2.09-2.09
				s2.09,0.91,2.09,2.09V24.39z"/>
			<path style="fill:#B31B00;" d="M657,34.69c0,10.69-5.22,15.71-13.69,15.71c-8.41,0-13.69-5.02-13.69-15.71
				s5.28-15.65,13.69-15.65C651.78,19.04,657,24,657,34.69z M652.76,34.69c0-8.22-3.46-11.87-9.45-11.87c-6,0-9.45,3.65-9.45,11.87
				c0,8.35,3.46,11.93,9.45,11.93C649.3,46.62,652.76,43.04,652.76,34.69z"/>
			<path style="fill:#B31B00;" d="M708.37,30.58v17.41c0,1.17-0.91,2.09-2.09,2.09s-2.09-0.91-2.09-2.09V31.43
				c0-5.15-1.83-8.67-8.15-8.67c-5.61,0-8.15,3-8.15,7.82v17.41c0,1.17-0.91,2.09-2.09,2.09c-1.17,0-2.09-0.91-2.09-2.09V31.43
				c0-5.15-1.63-8.67-8.02-8.67c-6.06,0-8.02,3.65-8.02,9.13v16.1c0,1.17-0.91,2.09-2.09,2.09s-2.09-0.91-2.09-2.09V21.52
				c0-1.17,0.91-2.09,2.09-2.09s2.09,0.91,2.09,2.09v2.09c1.11-2.41,4.24-4.56,8.48-4.56c5.35,0,8.8,1.96,10.37,4.56
				c1.63-2.54,4.5-4.56,9.52-4.56C706.09,19.04,708.37,25.04,708.37,30.58z"/>
			<path style="fill:#B31B00;" d="M715.74,10.83c0-1.89,0.91-2.61,2.48-2.61c1.56,0,2.48,0.72,2.48,2.61c0,1.56-0.91,2.48-2.48,2.48
				C716.65,13.31,715.74,12.39,715.74,10.83z M720.3,47.99c0,1.17-0.91,2.09-2.09,2.09c-1.17,0-2.09-0.91-2.09-2.09V21.52
				c0-1.17,0.91-2.09,2.09-2.09c1.17,0,2.09,0.91,2.09,2.09V47.99z"/>
			<path style="fill:#B31B00;" d="M732.24,27c0,6.85,17.15,4.3,17.15,14.74c0,5.93-4.89,8.61-11.08,8.61
				c-5.35,0-9.45-2.54-11.15-4.69c-0.33-0.46-0.46-0.78-0.46-1.24c0-1.04,0.85-1.89,1.89-1.89c0.39,0,0.91,0.13,1.43,0.65
				c2.02,2.02,4.63,3.19,8.28,3.19c3.72,0,6.91-1.24,6.91-4.63c0-6.72-17.15-4.04-17.15-14.74c0-5.41,4.43-7.89,9.98-7.89
				c4.43,0,7.89,1.5,9.91,4.17c0.2,0.26,0.46,0.65,0.46,1.24c0,1.04-0.85,1.89-1.89,1.89c-0.33,0-0.85-0.06-1.37-0.59
				c-1.76-1.7-3.72-2.74-7.11-2.74C735.1,23.09,732.24,24,732.24,27z"/>
			<path style="fill:#B31B00;" d="M767.9,19.04c10.43,0,12.45,8.28,12.45,12.71c0,1.89,0,4.17-2.61,4.17h-19.04
				c0,6.46,3.72,10.63,9.84,10.63c3.78,0,6-1.43,7.82-2.8c0.39-0.26,0.65-0.39,1.17-0.39c1.04,0,1.89,0.85,1.89,1.89
				c0,0.72-0.33,1.11-0.72,1.5c-0.98,0.98-4.37,3.65-10.17,3.65c-8.67,0-14.08-4.76-14.08-15.71
				C754.47,24.65,759.42,19.04,767.9,19.04z M767.9,22.82c-5.67,0-8.8,3.65-9.19,9.45h17.54C776.25,27.58,774.62,22.82,767.9,22.82z
				"/>
			<path style="fill:#FFFFFF;" d="M304.59,89.07c0-1.89,0.91-2.61,2.48-2.61s2.48,0.72,2.48,2.61c0,1.56-0.91,2.48-2.48,2.48
				S304.59,90.63,304.59,89.07z M309.16,126.23c0,1.17-0.91,2.09-2.09,2.09s-2.09-0.91-2.09-2.09V99.76c0-1.17,0.91-2.09,2.09-2.09
				s2.09,0.91,2.09,2.09V126.23z"/>
			<path style="fill:#FFFFFF;" d="M342.47,108.82v17.41c0,1.17-0.91,2.09-2.09,2.09s-2.09-0.91-2.09-2.09v-16.56
				c0-5.15-1.5-8.67-7.82-8.67c-6.45,0-8.67,3.91-8.67,9.13v16.1c0,1.17-0.91,2.09-2.09,2.09c-1.17,0-2.09-0.91-2.09-2.09V99.76
				c0-1.17,0.91-2.09,2.09-2.09c1.17,0,2.09,0.91,2.09,2.09v2.09c1.24-2.48,4.43-4.56,8.67-4.56
				C340.52,97.28,342.47,103.28,342.47,108.82z"/>
			<path style="fill:#FFFFFF;" d="M357.73,127.02l-11.08-26.34c-0.06-0.2-0.2-0.46-0.2-0.91c0-1.17,0.91-2.09,2.09-2.09
				c1.17,0,1.7,0.72,1.96,1.37l9.19,22.49l9.19-22.49c0.26-0.65,0.78-1.37,1.96-1.37c1.17,0,2.09,0.91,2.09,2.09
				c0,0.46-0.13,0.72-0.2,0.91l-11.08,26.34c-0.39,0.85-1.11,1.3-1.96,1.3S358.12,127.86,357.73,127.02z"/>
			<path style="fill:#FFFFFF;" d="M381.53,104.52c-0.65,0.72-1.11,0.91-1.7,0.91c-1.04,0-1.89-0.85-1.89-1.89
				c0-0.46,0.13-0.78,0.33-1.11c1.83-2.87,5.35-5.15,10.82-5.15c7.56,0,11.74,4.43,11.74,11.08v17.93c0,1.11-0.91,2.02-2.02,2.02
				s-2.02-0.91-2.02-2.02v-2.35c-1.63,3.06-5.41,4.69-9.32,4.69c-6.91,0-11.28-3.33-11.28-9.32c0-5.74,4.37-9.19,11.41-9.19h9.19
				v-1.76c0-4.43-2.93-7.17-7.69-7.17C385.64,101.2,383.55,102.24,381.53,104.52z M396.79,116.52v-2.74h-9.19
				c-4.24,0-7.17,1.76-7.17,5.54c0,3.39,2.35,5.54,7.43,5.54C392.42,124.86,396.79,122.06,396.79,116.52z"/>
			<path style="fill:#FFFFFF;" d="M412.11,105.24c0,6.85,17.15,4.3,17.15,14.74c0,5.93-4.89,8.61-11.08,8.61
				c-5.35,0-9.45-2.54-11.15-4.69c-0.33-0.46-0.46-0.78-0.46-1.24c0-1.04,0.85-1.89,1.89-1.89c0.39,0,0.91,0.13,1.43,0.65
				c2.02,2.02,4.63,3.19,8.28,3.19c3.72,0,6.91-1.24,6.91-4.63c0-6.72-17.15-4.04-17.15-14.74c0-5.41,4.43-7.89,9.98-7.89
				c4.43,0,7.89,1.5,9.91,4.17c0.2,0.26,0.46,0.65,0.46,1.24c0,1.04-0.85,1.89-1.89,1.89c-0.33,0-0.85-0.06-1.37-0.59
				c-1.76-1.7-3.72-2.74-7.11-2.74C414.98,101.33,412.11,102.24,412.11,105.24z"/>
			<path style="fill:#FFFFFF;" d="M435.84,89.07c0-1.89,0.91-2.61,2.48-2.61s2.48,0.72,2.48,2.61c0,1.56-0.91,2.48-2.48,2.48
				S435.84,90.63,435.84,89.07z M440.4,126.23c0,1.17-0.91,2.09-2.09,2.09s-2.09-0.91-2.09-2.09V99.76c0-1.17,0.91-2.09,2.09-2.09
				s2.09,0.91,2.09,2.09V126.23z"/>
			<path style="fill:#FFFFFF;" d="M456.96,127.02l-11.08-26.34c-0.06-0.2-0.2-0.46-0.2-0.91c0-1.17,0.91-2.09,2.09-2.09
				c1.17,0,1.69,0.72,1.96,1.37l9.19,22.49l9.19-22.49c0.26-0.65,0.78-1.37,1.96-1.37c1.17,0,2.09,0.91,2.09,2.09
				c0,0.46-0.13,0.72-0.2,0.91l-11.08,26.34c-0.39,0.85-1.11,1.3-1.96,1.3S457.36,127.86,456.96,127.02z"/>
			<path style="fill:#FFFFFF;" d="M488.91,97.28c10.43,0,12.45,8.28,12.45,12.71c0,1.89,0,4.17-2.61,4.17h-19.04
				c0,6.46,3.72,10.63,9.85,10.63c3.78,0,6-1.43,7.82-2.8c0.39-0.26,0.65-0.39,1.17-0.39c1.04,0,1.89,0.85,1.89,1.89
				c0,0.72-0.33,1.11-0.72,1.5c-0.98,0.98-4.37,3.65-10.17,3.65c-8.67,0-14.08-4.76-14.08-15.71
				C475.48,102.89,480.44,97.28,488.91,97.28z M488.91,101.07c-5.67,0-8.8,3.65-9.19,9.45h17.54
				C497.26,105.83,495.63,101.07,488.91,101.07z"/>
			<path style="fill:#FFFFFF;" d="M526.66,104.52c-0.65,0.72-1.11,0.91-1.7,0.91c-1.04,0-1.89-0.85-1.89-1.89
				c0-0.46,0.13-0.78,0.33-1.11c1.83-2.87,5.35-5.15,10.82-5.15c7.56,0,11.74,4.43,11.74,11.08v17.93c0,1.11-0.91,2.02-2.02,2.02
				s-2.02-0.91-2.02-2.02v-2.35c-1.63,3.06-5.41,4.69-9.32,4.69c-6.91,0-11.28-3.33-11.28-9.32c0-5.74,4.37-9.19,11.41-9.19h9.19
				v-1.76c0-4.43-2.93-7.17-7.69-7.17C530.77,101.2,528.68,102.24,526.66,104.52z M541.92,116.52v-2.74h-9.19
				c-4.24,0-7.17,1.76-7.17,5.54c0,3.39,2.35,5.54,7.43,5.54C537.55,124.86,541.92,122.06,541.92,116.52z"/>
			<path style="fill:#FFFFFF;" d="M573.8,101.52V83.46c0-1.17,0.91-2.09,2.09-2.09c1.17,0,2.09,0.91,2.09,2.09v32.34
				c0,8.61-5.35,12.84-12.78,12.84c-8.41,0-13.37-5.02-13.37-15.71s4.69-15.65,13.11-15.65C569.11,97.28,572.3,99.44,573.8,101.52z
				 M573.8,106.8c0,0-2.48-5.74-8.61-5.74c-5.93,0-9.19,3.85-9.19,11.87c0,8.15,3.19,11.93,9.19,11.93c5.02,0,8.61-2.87,8.61-9.06
				V106.8z"/>
			<path style="fill:#FFFFFF;" d="M594.21,127.02l-11.08-26.34c-0.07-0.2-0.2-0.46-0.2-0.91c0-1.17,0.91-2.09,2.09-2.09
				s1.7,0.72,1.96,1.37l9.19,22.49l9.19-22.49c0.26-0.65,0.78-1.37,1.96-1.37c1.17,0,2.09,0.91,2.09,2.09c0,0.46-0.13,0.72-0.2,0.91
				l-11.08,26.34c-0.39,0.85-1.11,1.3-1.96,1.3S594.6,127.86,594.21,127.02z"/>
			<path style="fill:#FFFFFF;" d="M626.16,97.28c10.43,0,12.45,8.28,12.45,12.71c0,1.89,0,4.17-2.61,4.17h-19.04
				c0,6.46,3.72,10.63,9.84,10.63c3.78,0,6-1.43,7.82-2.8c0.39-0.26,0.65-0.39,1.17-0.39c1.04,0,1.89,0.85,1.89,1.89
				c0,0.72-0.33,1.11-0.72,1.5c-0.98,0.98-4.37,3.65-10.17,3.65c-8.67,0-14.08-4.76-14.08-15.71
				C612.73,102.89,617.68,97.28,626.16,97.28z M626.16,101.07c-5.67,0-8.8,3.65-9.19,9.45h17.54
				C634.5,105.83,632.87,101.07,626.16,101.07z"/>
			<path style="fill:#FFFFFF;" d="M649.24,102.63c1.3-3,4.56-5.22,9.06-5.22c1.11,0,2.02,0.91,2.02,2.02s-0.91,2.02-2.02,2.02
				c-6,0-9.06,4.17-9.06,10.17v14.6c0,1.17-0.91,2.09-2.09,2.09s-2.09-0.91-2.09-2.09V99.76c0-1.17,0.91-2.09,2.09-2.09
				s2.09,0.91,2.09,2.09V102.63z"/>
			<path style="fill:#FFFFFF;" d="M668.14,91.35c0-1.11,0.98-2.09,2.09-2.09c1.17,0,2.09,0.98,2.09,2.09v6.85h4.24
				c1.11,0,1.96,0.85,1.96,1.96s-0.85,1.96-1.96,1.96h-4.24v18c0,2.8,1.56,4.3,3.78,4.3c1.11,0,2.02,0.85,2.02,1.96
				s-0.91,1.96-2.02,1.96c-5.15,0-7.95-3.46-7.95-8.22v-18h-2.54c-1.11,0-1.96-0.85-1.96-1.96s0.85-1.96,1.96-1.96h2.54V91.35z"/>
			<path style="fill:#FFFFFF;" d="M684.25,89.07c0-1.89,0.91-2.61,2.48-2.61c1.56,0,2.48,0.72,2.48,2.61c0,1.56-0.91,2.48-2.48,2.48
				C685.16,91.55,684.25,90.63,684.25,89.07z M688.81,126.23c0,1.17-0.91,2.09-2.09,2.09c-1.17,0-2.09-0.91-2.09-2.09V99.76
				c0-1.17,0.91-2.09,2.09-2.09c1.17,0,2.09,0.91,2.09,2.09V126.23z"/>
			<path style="fill:#FFFFFF;" d="M700.74,105.24c0,6.85,17.15,4.3,17.15,14.74c0,5.93-4.89,8.61-11.08,8.61
				c-5.35,0-9.45-2.54-11.15-4.69c-0.33-0.46-0.46-0.78-0.46-1.24c0-1.04,0.85-1.89,1.89-1.89c0.39,0,0.91,0.13,1.43,0.65
				c2.02,2.02,4.63,3.19,8.28,3.19c3.72,0,6.91-1.24,6.91-4.63c0-6.72-17.15-4.04-17.15-14.74c0-5.41,4.43-7.89,9.98-7.89
				c4.43,0,7.89,1.5,9.91,4.17c0.2,0.26,0.46,0.65,0.46,1.24c0,1.04-0.85,1.89-1.89,1.89c-0.33,0-0.85-0.06-1.37-0.59
				c-1.76-1.7-3.72-2.74-7.11-2.74C703.61,101.33,700.74,102.24,700.74,105.24z"/>
			<path style="fill:#FFFFFF;" d="M724.48,89.07c0-1.89,0.91-2.61,2.48-2.61c1.56,0,2.48,0.72,2.48,2.61c0,1.56-0.91,2.48-2.48,2.48
				C725.39,91.55,724.48,90.63,724.48,89.07z M729.04,126.23c0,1.17-0.91,2.09-2.09,2.09c-1.17,0-2.09-0.91-2.09-2.09V99.76
				c0-1.17,0.91-2.09,2.09-2.09c1.17,0,2.09,0.91,2.09,2.09V126.23z"/>
			<path style="fill:#FFFFFF;" d="M762.36,108.82v17.41c0,1.17-0.91,2.09-2.09,2.09s-2.09-0.91-2.09-2.09v-16.56
				c0-5.15-1.5-8.67-7.82-8.67c-6.46,0-8.67,3.91-8.67,9.13v16.1c0,1.17-0.91,2.09-2.09,2.09s-2.09-0.91-2.09-2.09V99.76
				c0-1.17,0.91-2.09,2.09-2.09s2.09,0.91,2.09,2.09v2.09c1.24-2.48,4.43-4.56,8.67-4.56C760.4,97.28,762.36,103.28,762.36,108.82z"
				/>
			<path style="fill:#FFFFFF;" d="M790.52,128.38v-3.72c-1.57,2.02-4.56,3.98-8.8,3.98c-8.48,0-13.5-4.96-13.5-15.65
				c0-10.69,5.02-15.71,13.5-15.71c7.43,0,13.04,4.3,13.04,12.91v18.19c0,8.87-6.06,12.52-13.37,12.52c-5.08,0-8.74-1.89-10.89-4.5
				c-0.2-0.26-0.39-0.65-0.39-1.17c0-1.11,0.91-2.02,2.02-2.02c0.52,0,0.98,0.13,1.56,0.72c1.5,1.5,3.59,3.06,7.69,3.06
				C786.74,136.99,790.52,134.32,790.52,128.38z M790.52,110.19c0-6.19-3.91-9.13-8.8-9.13c-6,0-9.32,3.78-9.32,11.93
				c0,8.02,3.33,11.87,9.32,11.87c6.13,0,8.8-5.28,8.8-5.28V110.19z"/>
		</g>
	</g>
	<g>
		<g>
			<g>
				<g>
					<path style="fill:#FFFFFF;" d="M68.82,311.59c0-1.64,1.45-3.09,3.09-3.09c1.74,0,3.09,1.45,3.09,3.09v10.15h6.28
						c1.64,0,2.9,1.26,2.9,2.9c0,1.64-1.26,2.9-2.9,2.9H75v26.67c0,4.16,2.32,6.38,5.61,6.38c1.64,0,3,1.25,3,2.9
						c0,1.64-1.36,2.9-3,2.9c-7.64,0-11.79-5.12-11.79-12.18v-26.67h-3.77c-1.64,0-2.9-1.26-2.9-2.9c0-1.64,1.26-2.9,2.9-2.9h3.77
						V311.59z"/>
					<path style="fill:#FFFFFF;" d="M130.19,337.5v25.81c0,1.74-1.35,3.09-3.09,3.09c-1.74,0-3.09-1.35-3.09-3.09v-24.55
						c0-7.63-2.23-12.86-11.6-12.86c-9.57,0-12.85,5.8-12.85,13.53v23.87c0,1.74-1.36,3.09-3.1,3.09c-1.74,0-3.09-1.35-3.09-3.09
						V299.9c0-1.74,1.35-3.09,3.09-3.09c1.74,0,3.1,1.35,3.1,3.09v27.26c1.84-3.67,6.57-6.76,12.85-6.76
						C127.3,320.39,130.19,329.29,130.19,337.5z"/>
					<path style="fill:#FFFFFF;" d="M152.52,363.79l-16.14-38.37c-0.1-0.29-0.29-0.68-0.29-1.35c0-1.74,1.36-3.09,3.09-3.09
						c1.74,0,2.52,1.06,2.9,2.03l13.63,33.35L169.34,323c0.39-0.97,1.16-2.03,2.9-2.03s3.1,1.35,3.1,3.09c0,0.68-0.2,1.06-0.29,1.35
						L156,370.75c-3.97,9.48-8.89,14.31-18.08,14.31c-1.65,0-2.9-1.26-2.9-2.9c0-1.64,1.25-2.9,2.9-2.9
						C146.33,379.26,148.56,373.56,152.52,363.79z"/>
					<path style="fill:#FFFFFF;" d="M189.35,328.32c1.94-4.45,6.77-7.74,13.44-7.74c1.64,0,3,1.35,3,3c0,1.64-1.35,2.99-3,2.99
						c-8.89,0-13.44,6.19-13.44,15.08v21.65c0,1.74-1.35,3.09-3.09,3.09c-1.74,0-3.09-1.35-3.09-3.09v-39.24
						c0-1.74,1.35-3.09,3.09-3.09c1.74,0,3.09,1.35,3.09,3.09V328.32z"/>
					<g>
						<path style="fill:#FFFFFF;" d="M37.64,366.4c-12.69,0-23.02-10.32-23.02-23.01c0-12.69,10.32-23.02,23.02-23.02
							c10.41,0,19.56,7.01,22.24,17.06c0.4,1.5-0.49,3.03-1.99,3.43l-36.13,9.68c2.73,6.04,8.82,10.25,15.87,10.25
							c4.65,0,9.02-1.81,12.31-5.1c1.1-1.1,2.87-1.1,3.97,0c1.1,1.1,1.1,2.87,0,3.96C49.57,364.01,43.79,366.4,37.64,366.4z
							 M37.64,325.98c-9.6,0-17.41,7.81-17.41,17.41c0,0.59,0.03,1.17,0.09,1.74l33.2-8.89C50.75,330.08,44.57,325.98,37.64,325.98z
							"/>
						<path style="fill:#FFFFFF;" d="M53.59,359.34"/>
						<path style="fill:#FFFFFF;" d="M21.69,327.44"/>
						<path style="fill:#FFFFFF;" d="M23.54,322.25v-8.12c0-7.2,6.29-12.32,14.1-12.32c7.81,0,14.1,5.13,14.1,12.32v8.12
							c2.04,1.37,3.86,3.01,5.42,4.9v-13.01c0-9.96-8.7-17.33-19.52-17.33c-10.82,0-19.52,7.36-19.52,17.33v13.01
							C19.68,325.27,21.51,323.62,23.54,322.25z"/>
						<path style="fill:#FFFFFF;" d="M45.73,343.39c0,4.46-3.62,8.08-8.09,8.08c-4.46,0-8.08-3.62-8.08-8.08
							c0-4.47,3.62-8.09,8.08-8.09C42.11,335.3,45.73,338.92,45.73,343.39z"/>
					</g>
				</g>
				<path style="fill:#FFFFFF;" d="M271.03,339.82h-38.66c-1.45,0-2.61-1.16-2.61-2.61c0-1.45,1.16-2.61,2.61-2.61h38.66
					c1.45,0,2.61,1.16,2.61,2.61C273.64,338.66,272.48,339.82,271.03,339.82z M271.03,354.61h-38.66c-1.45,0-2.61-1.16-2.61-2.61
					s1.16-2.61,2.61-2.61h38.66c1.45,0,2.61,1.16,2.61,2.61S272.48,354.61,271.03,354.61z"/>
			</g>
		</g>
		<g>
			<path style="fill:#FFFFFF;" d="M309.22,293.19v2.09c1.24-2.22,4.5-4.56,8.87-4.56c8.48,0,13.63,4.96,13.63,15.65
				c0,10.69-5.15,15.71-13.63,15.71c-4.37,0-7.5-2.35-8.87-4.56v14.74c0,1.11-0.98,2.09-2.09,2.09c-1.11,0-2.09-0.98-2.09-2.09
				v-39.05c0-1.17,0.98-2.09,2.09-2.09C308.24,291.1,309.22,292.02,309.22,293.19z M318.09,318.29c6,0,9.39-3.78,9.39-11.93
				c0-8.15-3.52-11.87-9.52-11.87c-4.83,0-8.87,3.39-8.87,11.87C309.09,314.77,313,318.29,318.09,318.29z"/>
			<path style="fill:#FFFFFF;" d="M342.41,296.06c1.3-3,4.56-5.22,9.06-5.22c1.11,0,2.02,0.91,2.02,2.02s-0.91,2.02-2.02,2.02
				c-6,0-9.06,4.17-9.06,10.17v14.61c0,1.17-0.91,2.09-2.09,2.09c-1.17,0-2.09-0.91-2.09-2.09v-26.47c0-1.17,0.91-2.09,2.09-2.09
				c1.17,0,2.09,0.91,2.09,2.09V296.06z"/>
			<path style="fill:#FFFFFF;" d="M357.93,282.5c0-1.89,0.91-2.61,2.48-2.61s2.48,0.72,2.48,2.61c0,1.57-0.91,2.48-2.48,2.48
				S357.93,284.06,357.93,282.5z M362.49,319.66c0,1.17-0.91,2.09-2.09,2.09s-2.09-0.91-2.09-2.09v-26.47
				c0-1.17,0.91-2.09,2.09-2.09s2.09,0.91,2.09,2.09V319.66z"/>
			<path style="fill:#FFFFFF;" d="M379.05,320.44l-11.08-26.34c-0.06-0.2-0.2-0.46-0.2-0.91c0-1.17,0.91-2.09,2.09-2.09
				c1.17,0,1.69,0.72,1.96,1.37l9.19,22.49l9.19-22.49c0.26-0.65,0.78-1.37,1.96-1.37c1.17,0,2.09,0.91,2.09,2.09
				c0,0.46-0.13,0.72-0.2,0.91l-11.08,26.34c-0.39,0.85-1.11,1.3-1.96,1.3S379.44,321.29,379.05,320.44z"/>
			<path style="fill:#FFFFFF;" d="M402.85,297.95c-0.65,0.72-1.11,0.91-1.7,0.91c-1.04,0-1.89-0.85-1.89-1.89
				c0-0.46,0.13-0.78,0.33-1.11c1.83-2.87,5.35-5.15,10.82-5.15c7.56,0,11.74,4.43,11.74,11.08v17.93c0,1.11-0.91,2.02-2.02,2.02
				s-2.02-0.91-2.02-2.02v-2.35c-1.63,3.06-5.41,4.69-9.32,4.69c-6.91,0-11.28-3.33-11.28-9.32c0-5.74,4.37-9.19,11.41-9.19h9.19
				v-1.76c0-4.43-2.93-7.17-7.69-7.17C406.96,294.63,404.87,295.67,402.85,297.95z M418.1,309.95v-2.74h-9.19
				c-4.24,0-7.17,1.76-7.17,5.54c0,3.39,2.35,5.54,7.43,5.54C413.74,318.29,418.1,315.49,418.1,309.95z"/>
			<path style="fill:#FFFFFF;" d="M441.45,290.71c5.8,0,9,3.06,10.04,4.5c0.33,0.46,0.46,0.78,0.46,1.24c0,1.11-0.85,1.89-1.89,1.89
				c-0.65,0-1.11-0.26-1.56-0.78c-0.98-1.11-2.74-3.06-7.04-3.06c-6,0-9.19,3.85-9.19,11.87c0,8.15,3.19,11.93,9.19,11.93
				c3.78,0,6.06-1.7,7.56-2.8c0.46-0.33,0.78-0.46,1.24-0.46c1.04,0,1.89,0.85,1.89,1.89c0,0.59-0.2,1.04-0.85,1.63
				c-1.43,1.17-4.56,3.52-9.85,3.52c-8.41,0-13.43-5.02-13.43-15.71C428.02,295.67,433.04,290.71,441.45,290.71z"/>
			<path style="fill:#FFFFFF;" d="M466.61,319.99l-10.89-25.88c-0.06-0.2-0.2-0.46-0.2-0.91c0-1.17,0.91-2.09,2.09-2.09
				c1.17,0,1.69,0.72,1.96,1.37l9.19,22.49l9.19-22.49c0.26-0.65,0.78-1.37,1.96-1.37s2.09,0.91,2.09,2.09
				c0,0.46-0.13,0.72-0.2,0.91l-12.84,30.58c-2.67,6.39-6,9.65-12.19,9.65c-1.11,0-1.96-0.85-1.96-1.96s0.85-1.96,1.96-1.96
				C462.44,330.42,463.94,326.57,466.61,319.99z"/>
			<path style="fill:#FFFFFF;" d="M501.89,295.54c-1.11,0-1.96-0.85-1.96-1.96s0.85-1.96,1.96-1.96h2.22v-3.85
				c0-5.87,3.33-11.21,11.28-11.21c1.11,0,1.96,0.85,1.96,1.96s-0.85,1.96-1.96,1.96c-5.09,0-7.11,3.06-7.11,7.3v3.85h5.93
				c1.11,0,1.96,0.85,1.96,1.96s-0.85,1.96-1.96,1.96h-5.93v24.13c0,1.17-0.91,2.09-2.09,2.09c-1.17,0-2.09-0.91-2.09-2.09v-24.13
				H501.89z"/>
			<path style="fill:#FFFFFF;" d="M525.81,296.06c1.3-3,4.56-5.22,9.06-5.22c1.11,0,2.02,0.91,2.02,2.02s-0.91,2.02-2.02,2.02
				c-6,0-9.06,4.17-9.06,10.17v14.61c0,1.17-0.91,2.09-2.09,2.09s-2.09-0.91-2.09-2.09v-26.47c0-1.17,0.91-2.09,2.09-2.09
				s2.09,0.91,2.09,2.09V296.06z"/>
			<path style="fill:#FFFFFF;" d="M566.89,306.36c0,10.69-5.22,15.71-13.69,15.71c-8.41,0-13.69-5.02-13.69-15.71
				c0-10.69,5.28-15.65,13.69-15.65C561.67,290.71,566.89,295.67,566.89,306.36z M562.65,306.36c0-8.21-3.46-11.87-9.45-11.87
				c-6,0-9.45,3.65-9.45,11.87c0,8.35,3.46,11.93,9.45,11.93C559.2,318.29,562.65,314.71,562.65,306.36z"/>
			<path style="fill:#FFFFFF;" d="M618.27,302.25v17.41c0,1.17-0.91,2.09-2.09,2.09s-2.09-0.91-2.09-2.09V303.1
				c0-5.15-1.83-8.67-8.15-8.67c-5.61,0-8.15,3-8.15,7.82v17.41c0,1.17-0.91,2.09-2.09,2.09c-1.17,0-2.09-0.91-2.09-2.09V303.1
				c0-5.15-1.63-8.67-8.02-8.67c-6.06,0-8.02,3.65-8.02,9.13v16.1c0,1.17-0.91,2.09-2.09,2.09s-2.09-0.91-2.09-2.09v-26.47
				c0-1.17,0.91-2.09,2.09-2.09s2.09,0.91,2.09,2.09v2.09c1.11-2.41,4.24-4.56,8.48-4.56c5.35,0,8.8,1.96,10.37,4.56
				c1.63-2.54,4.5-4.56,9.52-4.56C615.99,290.71,618.27,296.71,618.27,302.25z"/>
			<path style="fill:#00B51A;" d="M653.08,290.71c10.43,0,12.45,8.28,12.45,12.71c0,1.89,0,4.17-2.61,4.17h-19.04
				c0,6.46,3.72,10.63,9.84,10.63c3.78,0,6-1.43,7.82-2.8c0.39-0.26,0.65-0.39,1.17-0.39c1.04,0,1.89,0.85,1.89,1.89
				c0,0.72-0.33,1.11-0.72,1.5c-0.98,0.98-4.37,3.65-10.17,3.65c-8.67,0-14.08-4.76-14.08-15.71
				C639.65,296.32,644.61,290.71,653.08,290.71z M653.08,294.49c-5.67,0-8.8,3.65-9.19,9.45h17.54
				C661.43,299.25,659.8,294.49,653.08,294.49z"/>
			<path style="fill:#00B51A;" d="M696.83,302.25v17.41c0,1.17-0.91,2.09-2.09,2.09s-2.09-0.91-2.09-2.09V303.1
				c0-5.15-1.5-8.67-7.82-8.67c-6.46,0-8.67,3.91-8.67,9.13v16.1c0,1.17-0.91,2.09-2.09,2.09s-2.09-0.91-2.09-2.09v-26.47
				c0-1.17,0.91-2.09,2.09-2.09s2.09,0.91,2.09,2.09v2.09c1.24-2.48,4.43-4.56,8.67-4.56C694.88,290.71,696.83,296.71,696.83,302.25
				z"/>
			<path style="fill:#00B51A;" d="M716.13,290.71c5.8,0,9,3.06,10.04,4.5c0.33,0.46,0.46,0.78,0.46,1.24c0,1.11-0.85,1.89-1.89,1.89
				c-0.65,0-1.11-0.26-1.57-0.78c-0.98-1.11-2.74-3.06-7.04-3.06c-6,0-9.19,3.85-9.19,11.87c0,8.15,3.19,11.93,9.19,11.93
				c3.78,0,6.06-1.7,7.56-2.8c0.46-0.33,0.78-0.46,1.24-0.46c1.04,0,1.89,0.85,1.89,1.89c0,0.59-0.2,1.04-0.85,1.63
				c-1.43,1.17-4.56,3.52-9.84,3.52c-8.41,0-13.43-5.02-13.43-15.71C702.7,295.67,707.72,290.71,716.13,290.71z"/>
			<path style="fill:#00B51A;" d="M737.58,296.06c1.3-3,4.56-5.22,9.06-5.22c1.11,0,2.02,0.91,2.02,2.02s-0.91,2.02-2.02,2.02
				c-6,0-9.06,4.17-9.06,10.17v14.61c0,1.17-0.91,2.09-2.09,2.09s-2.09-0.91-2.09-2.09v-26.47c0-1.17,0.91-2.09,2.09-2.09
				s2.09,0.91,2.09,2.09V296.06z"/>
			<path style="fill:#00B51A;" d="M763.73,319.99l-10.89-25.88c-0.07-0.2-0.2-0.46-0.2-0.91c0-1.17,0.91-2.09,2.09-2.09
				s1.7,0.72,1.96,1.37l9.19,22.49l9.19-22.49c0.26-0.65,0.78-1.37,1.96-1.37c1.17,0,2.09,0.91,2.09,2.09c0,0.46-0.13,0.72-0.2,0.91
				l-12.84,30.58c-2.67,6.39-6,9.65-12.19,9.65c-1.11,0-1.96-0.85-1.96-1.96s0.85-1.96,1.96-1.96
				C759.55,330.42,761.05,326.57,763.73,319.99z"/>
			<path style="fill:#00B51A;" d="M788.57,293.19v2.09c1.24-2.22,4.5-4.56,8.87-4.56c8.48,0,13.63,4.96,13.63,15.65
				c0,10.69-5.15,15.71-13.63,15.71c-4.37,0-7.5-2.35-8.87-4.56v14.74c0,1.11-0.98,2.09-2.09,2.09s-2.09-0.98-2.09-2.09v-39.05
				c0-1.17,0.98-2.09,2.09-2.09S788.57,292.02,788.57,293.19z M797.44,318.29c6,0,9.39-3.78,9.39-11.93
				c0-8.15-3.52-11.87-9.52-11.87c-4.82,0-8.87,3.39-8.87,11.87C788.44,314.77,792.35,318.29,797.44,318.29z"/>
			<path style="fill:#00B51A;" d="M819.21,284.78c0-1.11,0.98-2.09,2.09-2.09c1.17,0,2.09,0.98,2.09,2.09v6.85h4.24
				c1.11,0,1.96,0.85,1.96,1.96s-0.85,1.96-1.96,1.96h-4.24v18c0,2.8,1.56,4.3,3.78,4.3c1.11,0,2.02,0.85,2.02,1.96
				s-0.91,1.96-2.02,1.96c-5.15,0-7.95-3.46-7.95-8.21v-18h-2.54c-1.11,0-1.96-0.85-1.96-1.96s0.85-1.96,1.96-1.96h2.54V284.78z"/>
			<path style="fill:#00B51A;" d="M835.31,282.5c0-1.89,0.91-2.61,2.48-2.61c1.56,0,2.48,0.72,2.48,2.61c0,1.57-0.91,2.48-2.48,2.48
				C836.23,284.97,835.31,284.06,835.31,282.5z M839.88,319.66c0,1.17-0.91,2.09-2.09,2.09c-1.17,0-2.09-0.91-2.09-2.09v-26.47
				c0-1.17,0.91-2.09,2.09-2.09c1.17,0,2.09,0.91,2.09,2.09V319.66z"/>
			<path style="fill:#00B51A;" d="M873.78,306.36c0,10.69-5.22,15.71-13.69,15.71c-8.41,0-13.69-5.02-13.69-15.71
				c0-10.69,5.28-15.65,13.69-15.65C868.57,290.71,873.78,295.67,873.78,306.36z M869.55,306.36c0-8.21-3.46-11.87-9.45-11.87
				c-6,0-9.45,3.65-9.45,11.87c0,8.35,3.46,11.93,9.45,11.93C866.09,318.29,869.55,314.71,869.55,306.36z"/>
			<path style="fill:#00B51A;" d="M905.14,302.25v17.41c0,1.17-0.91,2.09-2.09,2.09s-2.09-0.91-2.09-2.09V303.1
				c0-5.15-1.5-8.67-7.82-8.67c-6.46,0-8.67,3.91-8.67,9.13v16.1c0,1.17-0.91,2.09-2.09,2.09s-2.09-0.91-2.09-2.09v-26.47
				c0-1.17,0.91-2.09,2.09-2.09s2.09,0.91,2.09,2.09v2.09c1.24-2.48,4.43-4.56,8.67-4.56C903.19,290.71,905.14,296.71,905.14,302.25
				z"/>
			<path style="fill:#FFFFFF;" d="M325.07,373.19v-18.06c0-1.17,0.91-2.09,2.09-2.09c1.17,0,2.09,0.91,2.09,2.09v32.34
				c0,8.61-5.35,12.84-12.78,12.84c-8.41,0-13.37-5.02-13.37-15.71c0-10.69,4.69-15.65,13.1-15.65
				C320.37,368.95,323.57,371.11,325.07,373.19z M325.07,378.47c0,0-2.48-5.74-8.61-5.74c-5.93,0-9.19,3.85-9.19,11.87
				c0,8.15,3.19,11.93,9.19,11.93c5.02,0,8.61-2.87,8.61-9.06V378.47z"/>
			<path style="fill:#FFFFFF;" d="M341.04,376.19c-0.65,0.72-1.11,0.91-1.7,0.91c-1.04,0-1.89-0.85-1.89-1.89
				c0-0.46,0.13-0.78,0.33-1.11c1.83-2.87,5.35-5.15,10.82-5.15c7.56,0,11.74,4.43,11.74,11.08v17.93c0,1.11-0.91,2.02-2.02,2.02
				s-2.02-0.91-2.02-2.02v-2.35c-1.63,3.06-5.41,4.69-9.32,4.69c-6.91,0-11.28-3.33-11.28-9.32c0-5.74,4.37-9.19,11.41-9.19h9.19
				v-1.76c0-4.43-2.93-7.17-7.69-7.17C345.15,372.87,343.06,373.91,341.04,376.19z M356.3,388.19v-2.74h-9.19
				c-4.24,0-7.17,1.76-7.17,5.54c0,3.39,2.35,5.54,7.43,5.54C351.93,396.53,356.3,393.73,356.3,388.19z"/>
			<path style="fill:#FFFFFF;" d="M369.79,363.02c0-1.11,0.98-2.09,2.09-2.09c1.17,0,2.09,0.98,2.09,2.09v6.85h4.24
				c1.11,0,1.96,0.85,1.96,1.96s-0.85,1.96-1.96,1.96h-4.24v18c0,2.8,1.56,4.3,3.78,4.3c1.11,0,2.02,0.85,2.02,1.96
				s-0.91,1.96-2.02,1.96c-5.15,0-7.95-3.46-7.95-8.21v-18h-2.54c-1.11,0-1.96-0.85-1.96-1.96s0.85-1.96,1.96-1.96h2.54V363.02z"/>
			<path style="fill:#FFFFFF;" d="M389.68,376.19c-0.65,0.72-1.11,0.91-1.7,0.91c-1.04,0-1.89-0.85-1.89-1.89
				c0-0.46,0.13-0.78,0.33-1.11c1.83-2.87,5.35-5.15,10.82-5.15c7.56,0,11.74,4.43,11.74,11.08v17.93c0,1.11-0.91,2.02-2.02,2.02
				s-2.02-0.91-2.02-2.02v-2.35c-1.63,3.06-5.41,4.69-9.32,4.69c-6.91,0-11.28-3.33-11.28-9.32c0-5.74,4.37-9.19,11.41-9.19h9.19
				v-1.76c0-4.43-2.93-7.17-7.69-7.17C393.79,372.87,391.7,373.91,389.68,376.19z M404.94,388.19v-2.74h-9.19
				c-4.24,0-7.17,1.76-7.17,5.54c0,3.39,2.35,5.54,7.43,5.54C400.57,396.53,404.94,393.73,404.94,388.19z"/>
			<path style="fill:#FFFFFF;" d="M443.79,368.95c5.8,0,9,3.06,10.04,4.5c0.33,0.46,0.46,0.78,0.46,1.24c0,1.11-0.85,1.89-1.89,1.89
				c-0.65,0-1.11-0.26-1.56-0.78c-0.98-1.11-2.74-3.06-7.04-3.06c-6,0-9.19,3.85-9.19,11.87c0,8.15,3.19,11.93,9.19,11.93
				c3.78,0,6.06-1.7,7.56-2.8c0.46-0.33,0.78-0.46,1.24-0.46c1.04,0,1.89,0.85,1.89,1.89c0,0.59-0.2,1.04-0.85,1.63
				c-1.43,1.17-4.56,3.52-9.85,3.52c-8.41,0-13.43-5.02-13.43-15.71C430.36,373.91,435.38,368.95,443.79,368.95z"/>
			<path style="fill:#FFFFFF;" d="M486.5,384.6c0,10.69-5.22,15.71-13.69,15.71c-8.41,0-13.69-5.02-13.69-15.71
				c0-10.69,5.28-15.65,13.69-15.65C481.29,368.95,486.5,373.91,486.5,384.6z M482.26,384.6c0-8.21-3.46-11.87-9.45-11.87
				s-9.45,3.65-9.45,11.87c0,8.35,3.46,11.93,9.45,11.93S482.26,392.95,482.26,384.6z"/>
			<path style="fill:#FFFFFF;" d="M496.87,355.13v37.23c0,2.61,0.85,3.72,2.61,3.72c1.04,0,1.96,0.85,1.96,1.96
				s-0.91,1.96-1.96,1.96c-4.37,0-6.78-2.61-6.78-7.63v-37.23c0-1.11,0.98-2.09,2.09-2.09
				C495.96,353.04,496.87,354.02,496.87,355.13z"/>
			<path style="fill:#FFFFFF;" d="M511.15,355.13v37.23c0,2.61,0.85,3.72,2.61,3.72c1.04,0,1.96,0.85,1.96,1.96
				s-0.91,1.96-1.96,1.96c-4.37,0-6.78-2.61-6.78-7.63v-37.23c0-1.11,0.98-2.09,2.09-2.09
				C510.23,353.04,511.15,354.02,511.15,355.13z"/>
			<path style="fill:#FFFFFF;" d="M532.73,368.95c10.43,0,12.45,8.28,12.45,12.71c0,1.89,0,4.17-2.61,4.17h-19.04
				c0,6.46,3.72,10.63,9.84,10.63c3.78,0,6-1.43,7.82-2.8c0.39-0.26,0.65-0.39,1.17-0.39c1.04,0,1.89,0.85,1.89,1.89
				c0,0.72-0.33,1.11-0.72,1.5c-0.98,0.98-4.37,3.65-10.17,3.65c-8.67,0-14.08-4.76-14.08-15.71
				C519.3,374.56,524.25,368.95,532.73,368.95z M532.73,372.74c-5.67,0-8.8,3.65-9.19,9.45h17.54
				C541.07,377.5,539.44,372.74,532.73,372.74z"/>
			<path style="fill:#FFFFFF;" d="M563.11,368.95c5.8,0,9,3.06,10.04,4.5c0.33,0.46,0.46,0.78,0.46,1.24c0,1.11-0.85,1.89-1.89,1.89
				c-0.65,0-1.11-0.26-1.57-0.78c-0.98-1.11-2.74-3.06-7.04-3.06c-6,0-9.19,3.85-9.19,11.87c0,8.15,3.19,11.93,9.19,11.93
				c3.78,0,6.06-1.7,7.56-2.8c0.46-0.33,0.78-0.46,1.24-0.46c1.04,0,1.89,0.85,1.89,1.89c0,0.59-0.2,1.04-0.85,1.63
				c-1.43,1.17-4.56,3.52-9.84,3.52c-8.41,0-13.43-5.02-13.43-15.71C549.68,373.91,554.7,368.95,563.11,368.95z"/>
			<path style="fill:#FFFFFF;" d="M582.02,363.02c0-1.11,0.98-2.09,2.09-2.09c1.17,0,2.09,0.98,2.09,2.09v6.85h4.24
				c1.11,0,1.96,0.85,1.96,1.96s-0.85,1.96-1.96,1.96h-4.24v18c0,2.8,1.56,4.3,3.78,4.3c1.11,0,2.02,0.85,2.02,1.96
				s-0.91,1.96-2.02,1.96c-5.15,0-7.95-3.46-7.95-8.21v-18h-2.54c-1.11,0-1.96-0.85-1.96-1.96s0.85-1.96,1.96-1.96h2.54V363.02z"/>
			<path style="fill:#FFFFFF;" d="M598.12,360.74c0-1.89,0.91-2.61,2.48-2.61c1.56,0,2.48,0.72,2.48,2.61
				c0,1.57-0.91,2.48-2.48,2.48C599.03,363.22,598.12,362.3,598.12,360.74z M602.69,397.9c0,1.17-0.91,2.09-2.09,2.09
				c-1.17,0-2.09-0.91-2.09-2.09v-26.47c0-1.17,0.91-2.09,2.09-2.09c1.17,0,2.09,0.91,2.09,2.09V397.9z"/>
			<path style="fill:#FFFFFF;" d="M636.59,384.6c0,10.69-5.22,15.71-13.69,15.71c-8.41,0-13.69-5.02-13.69-15.71
				c0-10.69,5.28-15.65,13.69-15.65C631.37,368.95,636.59,373.91,636.59,384.6z M632.35,384.6c0-8.21-3.46-11.87-9.45-11.87
				c-6,0-9.45,3.65-9.45,11.87c0,8.35,3.46,11.93,9.45,11.93C628.9,396.53,632.35,392.95,632.35,384.6z"/>
			<path style="fill:#FFFFFF;" d="M667.95,380.49v17.41c0,1.17-0.91,2.09-2.09,2.09s-2.09-0.91-2.09-2.09v-16.56
				c0-5.15-1.5-8.67-7.82-8.67c-6.46,0-8.67,3.91-8.67,9.13v16.1c0,1.17-0.91,2.09-2.09,2.09s-2.09-0.91-2.09-2.09v-26.47
				c0-1.17,0.91-2.09,2.09-2.09s2.09,0.91,2.09,2.09v2.09c1.24-2.48,4.43-4.56,8.67-4.56C665.99,368.95,667.95,374.95,667.95,380.49
				z"/>
			<path style="fill:#FFFFFF;" d="M690.83,360.74c0-1.89,0.91-2.61,2.48-2.61c1.57,0,2.48,0.72,2.48,2.61
				c0,1.57-0.91,2.48-2.48,2.48C691.75,363.22,690.83,362.3,690.83,360.74z M695.4,397.9c0,1.17-0.91,2.09-2.09,2.09
				c-1.17,0-2.09-0.91-2.09-2.09v-26.47c0-1.17,0.91-2.09,2.09-2.09c1.17,0,2.09,0.91,2.09,2.09V397.9z"/>
			<path style="fill:#FFFFFF;" d="M748.73,380.49v17.41c0,1.17-0.91,2.09-2.09,2.09s-2.09-0.91-2.09-2.09v-16.56
				c0-5.15-1.83-8.67-8.15-8.67c-5.61,0-8.15,3-8.15,7.82v17.41c0,1.17-0.91,2.09-2.09,2.09c-1.17,0-2.09-0.91-2.09-2.09v-16.56
				c0-5.15-1.63-8.67-8.02-8.67c-6.06,0-8.02,3.65-8.02,9.13v16.1c0,1.17-0.91,2.09-2.09,2.09s-2.09-0.91-2.09-2.09v-26.47
				c0-1.17,0.91-2.09,2.09-2.09s2.09,0.91,2.09,2.09v2.09c1.11-2.41,4.24-4.56,8.48-4.56c5.35,0,8.8,1.96,10.37,4.56
				c1.63-2.54,4.5-4.56,9.52-4.56C746.45,368.95,748.73,374.95,748.73,380.49z"/>
			<path style="fill:#FFFFFF;" d="M760.73,371.43v2.09c1.24-2.22,4.5-4.56,8.87-4.56c8.48,0,13.63,4.96,13.63,15.65
				c0,10.69-5.15,15.71-13.63,15.71c-4.37,0-7.5-2.35-8.87-4.56v14.74c0,1.11-0.98,2.09-2.09,2.09s-2.09-0.98-2.09-2.09v-39.05
				c0-1.17,0.98-2.09,2.09-2.09S760.73,370.26,760.73,371.43z M769.6,396.53c6,0,9.39-3.78,9.39-11.93c0-8.15-3.52-11.87-9.52-11.87
				c-4.82,0-8.87,3.39-8.87,11.87C760.6,393.01,764.51,396.53,769.6,396.53z"/>
			<path style="fill:#FFFFFF;" d="M815.17,384.6c0,10.69-5.22,15.71-13.69,15.71c-8.41,0-13.69-5.02-13.69-15.71
				c0-10.69,5.28-15.65,13.69-15.65C809.96,368.95,815.17,373.91,815.17,384.6z M810.93,384.6c0-8.21-3.46-11.87-9.45-11.87
				c-6,0-9.45,3.65-9.45,11.87c0,8.35,3.46,11.93,9.45,11.93C807.48,396.53,810.93,392.95,810.93,384.6z"/>
			<path style="fill:#FFFFFF;" d="M825.15,376.91c0,6.85,17.15,4.3,17.15,14.74c0,5.93-4.89,8.61-11.08,8.61
				c-5.35,0-9.45-2.54-11.15-4.69c-0.33-0.46-0.46-0.78-0.46-1.24c0-1.04,0.85-1.89,1.89-1.89c0.39,0,0.91,0.13,1.43,0.65
				c2.02,2.02,4.63,3.19,8.28,3.19c3.72,0,6.91-1.24,6.91-4.63c0-6.72-17.15-4.04-17.15-14.74c0-5.41,4.43-7.89,9.98-7.89
				c4.43,0,7.89,1.5,9.91,4.17c0.2,0.26,0.46,0.65,0.46,1.24c0,1.04-0.85,1.89-1.89,1.89c-0.33,0-0.85-0.07-1.37-0.59
				c-1.76-1.7-3.72-2.74-7.11-2.74C828.02,373,825.15,373.91,825.15,376.91z"/>
			<path style="fill:#FFFFFF;" d="M852.79,376.91c0,6.85,17.15,4.3,17.15,14.74c0,5.93-4.89,8.61-11.08,8.61
				c-5.35,0-9.45-2.54-11.15-4.69c-0.33-0.46-0.46-0.78-0.46-1.24c0-1.04,0.85-1.89,1.89-1.89c0.39,0,0.91,0.13,1.43,0.65
				c2.02,2.02,4.63,3.19,8.28,3.19c3.72,0,6.91-1.24,6.91-4.63c0-6.72-17.15-4.04-17.15-14.74c0-5.41,4.43-7.89,9.98-7.89
				c4.43,0,7.89,1.5,9.91,4.17c0.2,0.26,0.46,0.65,0.46,1.24c0,1.04-0.85,1.89-1.89,1.89c-0.33,0-0.85-0.07-1.37-0.59
				c-1.76-1.7-3.72-2.74-7.11-2.74C855.66,373,852.79,373.91,852.79,376.91z"/>
			<path style="fill:#FFFFFF;" d="M876.52,360.74c0-1.89,0.91-2.61,2.48-2.61c1.56,0,2.48,0.72,2.48,2.61
				c0,1.57-0.91,2.48-2.48,2.48C877.44,363.22,876.52,362.3,876.52,360.74z M881.09,397.9c0,1.17-0.91,2.09-2.09,2.09
				c-1.17,0-2.09-0.91-2.09-2.09v-26.47c0-1.17,0.91-2.09,2.09-2.09c1.17,0,2.09,0.91,2.09,2.09V397.9z"/>
			<path style="fill:#FFFFFF;" d="M915.71,384.6c0,10.69-4.96,15.71-13.37,15.71c-7.43,0-12.78-4.24-12.78-12.84v-32.34
				c0-1.17,0.91-2.09,2.09-2.09s2.09,0.91,2.09,2.09v18.06c1.5-2.09,4.69-4.24,8.87-4.24C911.02,368.95,915.71,373.91,915.71,384.6z
				 M893.74,387.47c0,6.19,3.59,9.06,8.61,9.06c6,0,9.19-3.78,9.19-11.93c0-8.02-3.26-11.87-9.19-11.87c-6.13,0-8.61,5.74-8.61,5.74
				V387.47z"/>
			<path style="fill:#FFFFFF;" d="M925.75,355.13v37.23c0,2.61,0.85,3.72,2.61,3.72c1.04,0,1.96,0.85,1.96,1.96
				s-0.91,1.96-1.96,1.96c-4.37,0-6.78-2.61-6.78-7.63v-37.23c0-1.11,0.98-2.09,2.09-2.09
				C924.84,353.04,925.75,354.02,925.75,355.13z"/>
			<path style="fill:#FFFFFF;" d="M947.33,368.95c10.43,0,12.45,8.28,12.45,12.71c0,1.89,0,4.17-2.61,4.17h-19.04
				c0,6.46,3.72,10.63,9.84,10.63c3.78,0,6-1.43,7.82-2.8c0.39-0.26,0.65-0.39,1.17-0.39c1.04,0,1.89,0.85,1.89,1.89
				c0,0.72-0.33,1.11-0.72,1.5c-0.98,0.98-4.37,3.65-10.17,3.65c-8.67,0-14.08-4.76-14.08-15.71
				C933.9,374.56,938.86,368.95,947.33,368.95z M947.33,372.74c-5.67,0-8.8,3.65-9.19,9.45h17.54
				C955.68,377.5,954.05,372.74,947.33,372.74z"/>
		</g>
	</g>
</g>
</svg>
