<?xml version="1.0" encoding="utf-8"?>
<!-- Generator: Adobe Illustrator 16.0.3, SVG Export Plug-In . SVG Version: 6.00 Build 0)  -->
<!DOCTYPE svg PUBLIC "-//W3C//DTD SVG 1.1//EN" "http://www.w3.org/Graphics/SVG/1.1/DTD/svg11.dtd">
<svg version="1.1" id="Layer_1" xmlns="http://www.w3.org/2000/svg" xmlns:xlink="http://www.w3.org/1999/xlink" x="0px" y="0px"
	 width="800px" height="800px" viewBox="0 0 800 800" enable-background="new 0 0 800 800" xml:space="preserve">
<g>
	<path fill="#E6E6E6" d="M538.517,239.059c-52.215-79.947-159.356-102.428-239.303-50.213
		C219.265,241.063,196.784,348.203,249,428.15c52.216,79.949,159.354,102.428,239.304,50.212
		C568.252,426.147,590.733,319.007,538.517,239.059z M336.828,365.253c3.238,1.589,5.392,3.008,6.461,4.255
		c1.068,1.248,1.603,2.837,1.603,4.765c0,2.439-1.005,4.552-3.012,6.339c-2.008,1.787-4.339,2.68-6.995,2.68
		c-1.749,0-4.372-0.851-7.869-2.552l-96.079-46.801l96.079-46.801c3.498-1.645,6.087-2.467,7.772-2.467
		c2.72,0,5.083,0.88,7.092,2.638c2.007,1.758,3.012,3.858,3.012,6.296c0,1.929-0.535,3.518-1.603,4.765
		c-1.069,1.249-3.223,2.667-6.461,4.255l-64.506,31.313L336.828,365.253z M435.693,275.566l-63.826,120.49
		c-1.62,3.005-3.077,4.963-4.372,5.871c-1.685,1.192-3.725,1.786-6.12,1.786c-2.721,0-5.069-0.85-7.043-2.552
		c-1.977-1.702-2.963-3.631-2.963-5.787c0-1.531,0.777-3.773,2.331-6.722l64.021-120.405c1.618-3.006,3.045-4.964,4.274-5.872
		c1.749-1.191,3.789-1.787,6.12-1.787c2.722,0,5.053,0.837,6.994,2.511c1.944,1.673,2.915,3.588,2.915,5.743
		C438.024,270.375,437.248,272.617,435.693,275.566z M462.476,380.74c-3.498,1.702-6.089,2.552-7.772,2.552
		c-2.72,0-5.085-0.878-7.092-2.637c-2.008-1.757-3.012-3.885-3.012-6.382c0-1.928,0.535-3.518,1.604-4.765
		c1.068-1.247,3.222-2.666,6.46-4.255l64.506-31.314l-64.506-31.313c-3.238-1.587-5.392-3.006-6.46-4.255
		c-1.068-1.247-1.604-2.836-1.604-4.765c0-2.438,1.004-4.538,3.012-6.296c2.007-1.758,4.372-2.638,7.092-2.638
		c1.684,0,4.274,0.823,7.772,2.467l96.078,46.801L462.476,380.74z"/>
	<path fill="#E6E6E6" d="M400.586,0C179.349,0,0,179.349,0,400.586c0,221.239,179.349,400.586,400.586,400.586
		s400.586-179.348,400.586-400.586C801.173,179.349,621.824,0,400.586,0z M620.36,680.553
		c-17.089,11.16-120.861-160.014-126.835-156.869c-96.861,50.986-218.423,20.793-279.485-72.699
		c-64.827-99.257-36.917-232.272,62.34-297.099c99.256-64.827,232.271-36.917,297.098,62.34
		c61.063,93.494,39.845,216.941-45.776,285.136C522.425,505.566,637.448,669.393,620.36,680.553z"/>
</g>
</svg>
