<?xml version="1.0" encoding="utf-8"?>
<!-- Generator: Adobe Illustrator 16.0.3, SVG Export Plug-In . SVG Version: 6.00 Build 0)  -->
<!DOCTYPE svg PUBLIC "-//W3C//DTD SVG 1.1//EN" "http://www.w3.org/Graphics/SVG/1.1/DTD/svg11.dtd">
<svg version="1.1" id="Layer_1" xmlns="http://www.w3.org/2000/svg" xmlns:xlink="http://www.w3.org/1999/xlink" x="0px" y="0px"
	 width="800px" height="800px" viewBox="0 0 800 800" enable-background="new 0 0 800 800" xml:space="preserve">
<path fill="#E6E6E6" d="M400.953,123.254c-24.113,31.954-135.291,191.941-142.028,196.861
	c-11.79,8.596-138.402,80.512-140.522,81.644c-3.193,1.728-4.617,5.548-3.338,8.944c0.086,0.232,0.362,0.959,0.74,1.916
	c-12.458,7.579-33.845,13.519-33.845,13.519c0.349,32.987,15.594,55.871,15.594,55.871l10.891-1.104
	c0,57.322,42.789,119.002,63.48,125.536c20.689,6.533,11.978-17.047,2.54-30.462c-9.437-13.43-6.462-60.241-3.15-70.015
	c2.366,2.207,3.293,2.936,7.201,6.011c63.83-46.197,108.629-95.923,171.771-142.801c57.182-64.934,90.49-107.966,111.631-140.649
	c3.645,8.202,17.156,140.929,17.156,140.929c0.742,35.996-61.367,187.151-59.176,208.38c13.696,3.773,11.245,0.096,9.394,7.114
	c-6.948,17.573-3.886,48.703-3.886,48.703c28.416,18.192,61.303,8.435,61.303,8.435l1.757-8.886
	c81.28,34.631,154.995,7.55,154.995-8.435c0-8.798-35.71-13.492-63.532-21.499c-22.784-6.559-38.202-17.056-41.868-19.422
	c3.416-0.919,3.627-0.627,8.549-1.114c19.81-48.797,25.481-81.692,37.121-181.595c7.01-78.183,7.509-202.276-4.785-247.081
	C538.479,127.013,478.971,111.944,400.953,123.254z M797.5,398.75c0,220.224-178.526,398.75-398.75,398.75S0,618.974,0,398.75
	S178.526,0,398.75,0S797.5,178.526,797.5,398.75z"/>
</svg>
