<?xml version="1.0" encoding="utf-8"?>
<!-- Generator: Adobe Illustrator 16.0.3, SVG Export Plug-In . SVG Version: 6.00 Build 0)  -->
<!DOCTYPE svg PUBLIC "-//W3C//DTD SVG 1.1//EN" "http://www.w3.org/Graphics/SVG/1.1/DTD/svg11.dtd">
<svg version="1.1" id="Layer_1" xmlns="http://www.w3.org/2000/svg" xmlns:xlink="http://www.w3.org/1999/xlink" x="0px" y="0px"
	 width="512px" height="512px" viewBox="0 0 512 512" enable-background="new 0 0 512 512" xml:space="preserve">
<path fill="#E6E6E6" d="M254.75,0C114.055,0,0,114.055,0,254.75C0,395.445,114.055,509.5,254.75,509.5
	c140.695,0,254.75-114.055,254.75-254.75C509.5,114.055,395.445,0,254.75,0z M278.425,444.15h-47.35
	c-13.086,0-23.675-10.59-23.675-23.676h94.7C302.1,433.561,291.511,444.15,278.425,444.15z M313.938,408.638H195.563
	c-6.543,0-11.837-5.294-11.837-11.838c0-6.543,5.294-11.837,11.837-11.837h118.375c6.543,0,11.838,5.294,11.838,11.837
	C325.775,403.344,320.48,408.638,313.938,408.638z M313.938,373.125H195.563c-6.543,0-11.837-5.294-11.837-11.838
	c0-6.543,5.294-11.837,11.837-11.837h118.375c6.543,0,11.838,5.294,11.838,11.837C325.775,367.831,320.48,373.125,313.938,373.125z
	 M327.047,325.775c0,6.543-5.295,11.837-11.838,11.837H194.291c-6.543,0-11.837-5.294-11.837-11.837h-0.023
	c-7.259-70.193-46.055-77.684-46.055-142.05c0-65.384,52.991-118.375,118.375-118.375s118.375,52.991,118.375,118.375
	C373.125,248.091,334.33,255.582,327.047,325.775z"/>
</svg>
