<?xml version="1.0" encoding="utf-8"?>
<!-- Generator: Adobe Illustrator 16.0.3, SVG Export Plug-In . SVG Version: 6.00 Build 0)  -->
<!DOCTYPE svg PUBLIC "-//W3C//DTD SVG 1.1//EN" "http://www.w3.org/Graphics/SVG/1.1/DTD/svg11.dtd">
<svg version="1.1" id="Layer_1" xmlns="http://www.w3.org/2000/svg" xmlns:xlink="http://www.w3.org/1999/xlink" x="0px" y="0px"
	 width="800px" height="800px" viewBox="0 0 800 800" enable-background="new 0 0 800 800" xml:space="preserve">
<path fill="#E6E6E6" d="M400,0.74c216.909,0,392.774,175.865,392.774,392.774c0,216.91-175.865,392.773-392.774,392.773
	c-67.928,0-131.832-17.243-187.568-47.6c-74.095,52.971-100.876,60.573-205.207,60.573c69.042-76.712,75.878-113.467,72.805-177.906
	C34.192,557.099,7.225,478.453,7.225,393.514C7.225,176.604,183.09,0.74,400,0.74z M600.351,393.514l74.543-74.625l-29.8-29.8
	l-74.626,74.542l-74.625-74.542l-29.801,29.8l74.543,74.625l-74.543,74.626l29.801,29.8l74.625-74.541l74.626,74.541l29.8-29.8
	L600.351,393.514z M401.633,604.559c51.624-70.58,51.624-351.507,0-422.089C275.005,309.096,275.005,309.096,275.005,309.096
	H148.378v168.836h126.627C275.005,477.933,275.005,477.933,401.633,604.559z"/>
</svg>
