<?xml version="1.0" encoding="utf-8"?>
<!-- Generator: Adobe Illustrator 16.0.3, SVG Export Plug-In . SVG Version: 6.00 Build 0)  -->
<!DOCTYPE svg PUBLIC "-//W3C//DTD SVG 1.1//EN" "http://www.w3.org/Graphics/SVG/1.1/DTD/svg11.dtd">
<svg version="1.1" id="Layer_1" xmlns="http://www.w3.org/2000/svg" xmlns:xlink="http://www.w3.org/1999/xlink" x="0px" y="0px"
	 width="800px" height="800px" viewBox="0 0 800 800" enable-background="new 0 0 800 800" xml:space="preserve">
<g>
	<path fill="#E6E6E6" d="M401,438.162c-21.075,0-38.163,17.069-38.163,38.163c0,13.976,7.881,25.678,19.082,32.312v63.095
		c0,10.547,8.534,19.081,19.081,19.081s19.081-8.534,19.081-19.081v-63.095c11.199-6.634,19.081-18.336,19.081-32.312
		C439.162,455.23,422.075,438.162,401,438.162z"/>
	<path fill="#E6E6E6" d="M400,0C179.638,0,1,178.638,1,399c0,220.361,178.638,399,399,399c220.361,0,399-178.639,399-399
		C799,178.638,620.361,0,400,0z M401,705.3c-105.375,0-190.813-85.418-190.813-190.813S295.625,323.675,401,323.675
		c105.395,0,190.813,85.418,190.813,190.813S506.395,705.3,401,705.3z M591.813,388.187c-19.528-29.404-45.728-53.927-76.325-71.704
		v-30.97c0-63.133-51.356-114.488-114.487-114.488c-63.131,0-114.487,51.356-114.487,114.488v30.97
		c-30.616,17.776-56.796,42.299-76.325,71.704V285.513C210.188,180.118,295.625,94.7,401,94.7
		c105.395,0,190.813,85.418,190.813,190.813V388.187z"/>
</g>
</svg>
